# xmcd CD database file
#
# Track frame offsets:
#	180
#	24637
#	41273
#	55788
#	74242
#	93069
#	108047
#	126774
#	139016
#	156087
#	174521
#	193751
#
# Disc length: 2785 seconds
#
# Revision: 3
# Processed by: cddbd v1.5.2PL0 Copyright (c) Steve Scherf et al.
# Submitted via: CDex 1.70beta2
#
DISCID=9c0adf0c
DTITLE=Pall Mall Jazz - Blue Moods
DYEAR=1996
DGENRE=Jazz
TTITLE0=Dave Brubeck - Take Five
TTITLE1=The Glenn Miller Orchestra - Moonlight Serenade
TTITLE2=Ella Fitzgerald - People
TTITLE3=Johnny Winter - Cheap Tequilla
TTITLE4=Muddy Waters - Baby, Please Don't Go
TTITLE5=Louis Armstrong - Just a Gigolo
TTITLE6=Edgar Winter - Tobacco Road
TTITLE7=Lionel Hampton - Satin Doll
TTITLE8=Duke Ellington - Mood Indigo
TTITLE9=Chet Baker - With a Song in my Heart
TTITLE10=Dave Brubeck Quartet - Somewhere
TTITLE11=Benny Goodman - Body and Soul
EXTD=YEAR: 1996
EXTT0=
EXTT1=
EXTT2=
EXTT3=
EXTT4=
EXTT5=
EXTT6=
EXTT7=
EXTT8=
EXTT9=
EXTT10=
EXTT11=
PLAYORDER=
